<svg width="65" height="65" viewBox="0 0 65 65" fill="none" xmlns="http://www.w3.org/2000/svg">
<rect x="0.0433578" y="0.5" width="64" height="64" fill="black"/>
<path d="M14.0981 17.7866C14.1063 17.4239 14.2681 17.2148 14.5834 17.1592L29.6653 14.4999C30.0506 14.4319 30.2392 14.5793 30.2309 14.942L30.19 19.9341C30.1817 20.2968 30.0024 20.509 29.6521 20.5708L21.0339 22.0904C20.8237 22.1275 20.7371 22.2511 20.7742 22.4613L20.8101 30.9618C20.7771 31.1844 20.8657 31.2771 21.0759 31.24L28.4854 29.9335C28.8357 29.8718 29.0068 30.0222 28.9985 30.3849L29.0009 35.3152C28.9926 35.6779 28.8308 35.887 28.5155 35.9426L21.1059 37.2491C20.8957 37.2862 20.7917 37.4129 20.7937 37.6293L20.7894 46.5162C20.7564 46.7387 20.845 46.8315 21.0552 46.7944L29.6733 45.2748C30.0237 45.213 30.1947 45.3635 30.1864 45.7262L30.1981 50.709C30.1898 51.0717 30.028 51.2809 29.7127 51.3365L14.6834 53.9865C14.3331 54.0483 14.1621 53.8978 14.1704 53.5351L14.0981 17.7866Z" fill="white"/>
<path d="M40.7914 18.6066C40.5812 18.6437 40.4946 18.7673 40.5317 18.9775L40.5274 27.8644C40.4944 28.087 40.583 28.1797 40.7932 28.1426L48.2553 26.8269C48.5706 26.7713 48.7241 26.9248 48.7158 27.2875L48.7089 32.1653C48.7006 32.5279 48.5388 32.7371 48.2235 32.7927L40.7614 34.1084C40.5512 34.1455 40.4647 34.2691 40.5017 34.4793L40.4966 48.8931C40.4883 49.2558 40.3265 49.4649 40.0112 49.5205L34.4409 50.5027C34.0906 50.5645 33.9196 50.414 33.9279 50.0514L33.9081 14.2936C33.9164 13.9309 34.0782 13.7217 34.3935 13.6661L49.4228 11.0161C49.8082 10.9481 49.9967 11.0955 49.9884 11.4582L49.9475 16.4503C49.9392 16.813 49.7599 17.0252 49.4096 17.087L40.7914 18.6066Z" fill="white"/>
</svg>
